<?xml version="1.0" encoding="iso-8859-1"?>
<!-- Uploaded to: SVG Repo, www.svgrepo.com, Generator: SVG Repo Mixer Tools -->
<svg fill="#000000" height="800px" width="800px" version="1.1" id="Layer_1" xmlns="http://www.w3.org/2000/svg" xmlns:xlink="http://www.w3.org/1999/xlink" 
	 viewBox="0 0 489.164 489.164" xml:space="preserve">
<path d="M159.582,75.46v285.32c-14.274-10.374-32.573-16.616-52.5-16.616c-45.491,0-82.5,32.523-82.5,72.5s37.009,72.5,82.5,72.5
	s82.5-32.523,82.5-72.5V168.942l245-60.615v184.415c-14.274-10.374-32.573-16.616-52.5-16.616c-45.491,0-82.5,32.523-82.5,72.5
	s37.009,72.5,82.5,72.5s82.5-32.523,82.5-72.5V0L159.582,75.46z M189.582,138.038V98.942l245-60.615v39.095L189.582,138.038z"/>
</svg>